#!OML:ASF H:\Male1\Project 1\Capture day 1\Session 1\Male1.ASF
:FULLY-SPECIFIED
:DEGREES
378
root 16.768 14.0313 0.674139 222.492 65.7954 -157.799
lowerback 40.462 -0.435961 -8.98164
upperback 18.5503 -0.148786 -5.22143
thorax 1.5133 0.904165 -0.878252
lowerneck 1.95718 8.56394 10.7621
upperneck -15.0811 11.0929 -12.1749
head -3.45336 5.85383 -5.79087
rclavicle 0 -5.76476e-015
rhumerus -27.4445 18.8206 -90.4998
rradius 57.3306
rwrist -33.472
rhand -18.6492 6.39979
rfingers 7.12502
rthumb 7.64371 -23.4421
lclavicle 0 -5.76476e-015
lhumerus 50.0101 -4.92331 58.6341
lradius 23.9172
lwrist -5.18824
lhand -26.8954 16.205
lfingers 7.12502
lthumb -0.319052 46.1845
rfemur -64.0518 1.9065 31.7893
rtibia 55.0051
rfoot -13.4581 -12.0511
rtoes -36.0545
lfemur -68.2588 3.54496 -8.4444
ltibia 65.2217
lfoot -17.4147 8.88919
ltoes -21.2675
379
root 16.8337 13.951 0.669515 224.339 65.7039 -156.886
lowerback 41.0162 -0.385173 -9.12493
upperback 18.6291 -0.154467 -5.31807
thorax 1.45471 0.903348 -0.920446
lowerneck 2.55704 8.54139 10.5473
upperneck -16.7018 11.0799 -12.1875
head -4.05347 5.90273 -5.88163
rclavicle -4.77083e-014 7.55382e-015
rhumerus -27.531 18.5104 -90.425
rradius 57.6735
rwrist -34.0745
rhand -18.6035 6.10814
rfingers 7.12502
rthumb 7.68788 -23.7321
lclavicle -4.77083e-014 7.55382e-015
lhumerus 51.7489 -4.08997 57.395
lradius 23.6269
lwrist -6.49685
lhand -26.6621 16.1116
lfingers 7.12502
lthumb -0.0937039 46.0913
rfemur -65.7722 1.81736 32.6324
rtibia 56.4784
rfoot -14.3066 -11.5141
rtoes -34.6069
lfemur -70.0296 4.0059 -8.00462
ltibia 66.875
lfoot -18.093 8.904
ltoes -20.886
380
root 16.8982 13.8617 0.663411 226.216 65.5728 -155.869
lowerback 41.6078 -0.325569 -9.18723
upperback 18.6667 -0.141355 -5.38982
thorax 1.33602 0.915112 -0.984588
lowerneck 3.14158 8.49439 10.3376
upperneck -18.2462 11.0387 -12.1814
head -4.63833 5.93521 -5.96951
rclavicle 1.27222e-014 2.21148e-014
rhumerus -27.6728 18.0097 -90.3427
rradius 58.0061
rwrist -34.751
rhand -18.2521 5.22255
rfingers 7.12502
rthumb 8.02704 -24.605
lclavicle 1.27222e-014 2.21148e-014
lhumerus 53.3555 -3.33121 56.1867
lradius 23.3284
lwrist -7.87858
lhand -27.1391 15.813
lfingers 7.12502
lthumb -0.554446 45.792
rfemur -67.4503 1.90378 33.4451
rtibia 58.008
rfoot -15.1031 -11.1562
rtoes -33.5791
lfemur -71.7886 4.56698 -7.55482
ltibia 68.5983
lfoot -18.8194 8.78797
ltoes -20.3898
381
root 16.9613 13.7636 0.656599 228.219 65.3981 -154.654
lowerback 42.2118 -0.245005 -9.16517
upperback 18.6582 -0.0941767 -5.43473
thorax 1.1584 0.945412 -1.07477
lowerneck 3.62441 8.44562 10.1649
upperneck -19.5788 10.9974 -12.1569
head -5.14663 5.95923 -6.0448
rclavicle 1.27222e-014 -4.44346e-014
rhumerus -27.8541 17.4015 -90.2606
rradius 58.2968
rwrist -35.5082
rhand -17.5401 3.63336
rfingers 7.12502
rthumb 8.71418 -26.1668
lclavicle 1.27222e-014 -4.44346e-014
lhumerus 54.8135 -2.65268 55.0101
lradius 23.0367
lwrist -9.3368
lhand -28.3551 15.4999
lfingers 7.12502
lthumb -1.72883 45.4727
rfemur -69.076 2.19651 34.2562
rtibia 59.5747
rfoot -15.8204 -11.0383
rtoes -33.3999
lfemur -73.5433 5.25315 -7.0525
ltibia 70.3874
lfoot -19.566 8.56103
ltoes -19.8651
382
root 17.0231 13.6588 0.64943 230.246 65.211 -153.334
lowerback 42.8303 -0.130673 -9.11323
upperback 18.607 -0.0132853 -5.4623
thorax 0.92945 0.9917 -1.17432
lowerneck 3.95479 8.41032 10.0573
upperneck -20.6242 10.9745 -12.1227
head -5.53978 5.98056 -6.10431
rclavicle -6.36111e-015 -3.57812e-015
rhumerus -28.0497 16.7565 -90.1832
rradius 58.4942
rwrist -36.2783
rhand -16.5166 1.47238
rfingers 7.12502
rthumb 9.70179 -28.2842
lclavicle -6.36111e-015 -3.57812e-015
lhumerus 56.129 -2.05271 53.8781
lradius 22.7547
lwrist -10.8401
lhand -30.166 15.3967
lfingers 7.12502
lthumb -3.47779 45.3481
rfemur -70.6287 2.6564 35.022
rtibia 61.1656
rfoot -16.4824 -11.1121
rtoes -33.6524
lfemur -75.2537 6.03343 -6.54778
ltibia 72.2114
lfoot -20.2952 8.2831
ltoes -19.4398
383
root 17.084 13.5497 0.641397 232.157 65.0551 -152.048
lowerback 43.4683 0.0173297 -9.10089
upperback 18.5188 0.0795846 -5.48475
thorax 0.660128 1.04071 -1.25509
lowerneck 4.13253 8.4089 9.99052
upperneck -21.3751 10.9971 -12.0671
head -5.81185 6.01285 -6.13786
rclavicle 4.13472e-014 4.37326e-015
rhumerus -28.2422 16.1684 -90.1137
rradius 58.5584
rwrist -36.9439
rhand -15.3237 -0.950249
rfingers 7.12502
rthumb 10.8526 -30.6498
lclavicle 4.13472e-014 4.37326e-015
lhumerus 57.2949 -1.48854 52.8401
lradius 22.4769
lwrist -12.3449
lhand -32.3227 15.6185
lfingers 7.12502
lthumb -5.5603 45.5256
rfemur -72.0968 3.2102 35.6874
rtibia 62.7742
rfoot -17.1139 -11.3092
rtoes -34.0598
lfemur -76.8731 6.84715 -6.11532
ltibia 74.0288
lfoot -20.9688 8.05214
ltoes -19.3155
384
root 17.1442 13.4397 0.631639 233.822 64.9622 -150.917
lowerback 44.1239 0.18753 -9.16556
upperback 18.4119 0.163901 -5.51276
thorax 0.374782 1.08233 -1.30297
lowerneck 4.19073 8.44531 9.94659
upperneck -21.8877 11.0682 -11.9996
head -5.98389 6.06106 -6.14969
rclavicle -2.54444e-014 -2.08724e-014
rhumerus -28.4132 15.6874 -90.0505
rradius 58.4703
rwrist -37.3845
rhand -14.1366 -3.2663
rfingers 7.12502
rthumb 11.9974 -32.9025
lclavicle -2.54444e-014 -2.08724e-014
lhumerus 58.3222 -0.911061 51.9851
lradius 22.2003
lwrist -13.8387
lhand -34.574 16.1487
lfingers 7.12502
lthumb -7.7336 45.9873
rfemur -73.4636 3.77084 36.2181
rtibia 64.3924
rfoot -17.7545 -11.5359
rtoes -34.232
lfemur -78.3547 7.62858 -5.8142
ltibia 75.8029
lfoot -21.5785 7.94962
ltoes -19.6398
385
root 17.2037 13.3315 0.619556 235.159 64.953 -150.024
lowerback 44.7929 0.370474 -9.31811
upperback 18.304 0.230307 -5.5494
thorax 0.0958262 1.11297 -1.31238
lowerneck 4.16985 8.5085 9.92261
upperneck -22.2377 11.1698 -11.9467
head -6.08577 6.12037 -6.15405
rclavicle 4.13472e-014 3.8763e-014
rhumerus -28.5526 15.3257 -89.9848
rradius 58.2454
rwrist -37.5522
rhand -13.0936 -5.19727
rfingers 7.12502
rthumb 13.003 -34.772
lclavicle 4.13472e-014 3.8763e-014
lhumerus 59.2437 -0.293656 51.409
lradius 21.9255
lwrist -15.3182
lhand -36.7163 16.9046
lfingers 7.12502
lthumb -9.80095 46.6565
rfemur -74.7211 4.26401 36.6011
rtibia 66.0099
rfoot -18.4626 -11.6667
rtoes -33.5979
lfemur -79.672 8.32475 -5.67488
ltibia 77.5115
lfoot -22.1565 7.96379
ltoes -20.192
386
root 17.2623 13.2263 0.604372 236.241 65.008 -149.3
lowerback 45.4525 0.547201 -9.5332
upperback 18.2091 0.269003 -5.58658
thorax -0.156822 1.12808 -1.28275
lowerneck 4.11425 8.59942 9.89817
upperneck -22.5018 11.2954 -11.9443
head -6.14787 6.19389 -6.16651
rclavicle 5.40694e-014 -9.22361e-014
rhumerus -28.6521 15.1503 -89.9076
rradius 57.9334
rwrist -37.4978
rhand -12.3157 -6.60531
rfingers 7.12502
rthumb 13.7528 -36.1308
lclavicle 5.40694e-014 -9.22361e-014
lhumerus 60.0707 0.430592 51.2195
lradius 21.6328
lwrist -16.8603
lhand -38.6249 17.7662
lfingers 7.12502
lthumb -11.642 47.4228
rfemur -75.8611 4.66528 36.8958
rtibia 67.6058
rfoot -19.2111 -11.6776
rtoes -32.3881
lfemur -80.8338 8.941 -5.65544
ltibia 79.1547
lfoot -22.7341 8.01251
ltoes -20.5974
